<svg xmlns="http://www.w3.org/2000/svg" viewBox="0 0 1200 800">
  <defs>
    <linearGradient id="bg" x1="0" y1="0" x2="0" y2="1">
      <stop offset="0" stop-color="#0c141b"/>
      <stop offset="1" stop-color="#070a0f"/>
    </linearGradient>
  </defs>
  <rect width="1200" height="800" fill="url(#bg)"/>
  <g transform="translate(190,220)">
    <path d="M280 410 L 460 170 L 640 410 Z" fill="rgba(255,255,255,.08)" stroke="rgba(255,255,255,.18)" stroke-width="4"/>
    <path d="M460 170 L 520 280 L 460 410 L 400 280 Z" fill="rgba(0,0,0,.18)"/>
    <rect x="820" y="420" width="140" height="60" rx="14" fill="rgba(255,255,255,.07)" stroke="rgba(255,255,255,.14)" stroke-width="4"/>
    <path d="M860 420 C 860 360, 920 330, 920 280 C 920 250, 900 220, 860 220 C 820 220, 790 250, 790 290 C 790 330, 820 360, 820 390 C 820 410, 835 420, 860 420 Z"
          fill="rgba(255,176,83,.25)" stroke="rgba(255,176,83,.45)" stroke-width="4"/>
    <path d="M860 390 C 860 340, 900 330, 900 290 C 900 270, 885 250, 860 250 C 835 250, 818 270, 818 295 C 818 330, 845 345, 845 370 C 845 382, 850 388, 860 390 Z"
          fill="rgba(255,176,83,.55)"/>
    <path d="M720 520 L 860 470" stroke="rgba(201,154,90,.55)" stroke-width="10" stroke-linecap="round"/>
    <path d="M720 470 L 860 520" stroke="rgba(201,154,90,.55)" stroke-width="10" stroke-linecap="round"/>
    <circle cx="860" cy="495" r="8" fill="rgba(0,0,0,.35)"/>
    <path d="M120 520 C 260 480, 420 560, 560 520 C 720 470, 860 560, 1040 510 L 1040 630 L 120 630 Z"
          fill="rgba(0,0,0,.28)"/>
  </g>
</svg>
