<svg xmlns="http://www.w3.org/2000/svg" viewBox="0 0 1200 800">
  <defs>
    <linearGradient id="bg" x1="0" y1="0" x2="1" y2="1">
      <stop offset="0" stop-color="#0b1116"/>
      <stop offset="1" stop-color="#070a0f"/>
    </linearGradient>
    <linearGradient id="paper" x1="0" y1="0" x2="0" y2="1">
      <stop offset="0" stop-color="rgba(255,255,255,.10)"/>
      <stop offset="1" stop-color="rgba(255,255,255,.06)"/>
    </linearGradient>
  </defs>
  <rect width="1200" height="800" fill="url(#bg)"/>
  <g transform="translate(140,140)">
    <path d="M120 80 C 80 80, 50 110, 50 150 L 50 510 C 50 560, 80 590, 120 590
             C 150 590, 178 574, 190 550 C 210 590, 250 620, 300 620 L 800 620
             C 850 620, 890 590, 910 550 C 922 574, 950 590, 980 590
             C 1020 590, 1050 560, 1050 510 L 1050 150 C 1050 110, 1020 80, 980 80
             C 950 80, 922 96, 910 120 C 890 80, 850 50, 800 50 L 300 50
             C 250 50, 210 80, 190 120 C 178 96, 150 80, 120 80 Z"
          fill="url(#paper)" stroke="rgba(255,255,255,.16)" stroke-width="4"/>
    <path d="M260 180 L 880 180" stroke="rgba(255,176,83,.35)" stroke-width="8" stroke-linecap="round"/>
    <path d="M260 250 L 820 250" stroke="rgba(255,255,255,.18)" stroke-width="6" stroke-linecap="round"/>
    <path d="M260 320 L 860 320" stroke="rgba(255,255,255,.18)" stroke-width="6" stroke-linecap="round"/>
    <path d="M260 390 L 760 390" stroke="rgba(255,255,255,.18)" stroke-width="6" stroke-linecap="round"/>
    <g transform="translate(120,210)">
      <path d="M0 60 C 20 20, 58 0, 100 0 C 142 0, 180 20, 200 60 C 180 100, 142 120, 100 120 C 58 120, 20 100, 0 60 Z"
            fill="rgba(122,197,123,.22)" stroke="rgba(122,197,123,.45)" stroke-width="4"/>
      <path d="M70 20 L 130 60 L 70 100 Z" fill="rgba(255,176,83,.70)"/>
    </g>
  </g>
</svg>
