<svg xmlns="http://www.w3.org/2000/svg" viewBox="0 0 1200 800">
  <defs>
    <linearGradient id="bg" x1="0" y1="0" x2="1" y2="1">
      <stop offset="0" stop-color="#0d141b"/>
      <stop offset="1" stop-color="#091017"/>
    </linearGradient>
    <linearGradient id="paper" x1="0" y1="0" x2="0" y2="1">
      <stop offset="0" stop-color="rgba(255,255,255,.10)"/>
      <stop offset="1" stop-color="rgba(255,255,255,.06)"/>
    </linearGradient>
  </defs>
  <rect width="1200" height="800" fill="url(#bg)"/>
  <path d="M120 160 C 240 120, 420 240, 560 170 C 680 110, 860 210, 1020 150 L 1040 640 C 870 700, 710 560, 560 650 C 420 740, 250 620, 140 680 Z"
        fill="url(#paper)" stroke="rgba(255,255,255,.14)" stroke-width="3" />
  <path d="M200 260 C 320 220, 420 300, 520 250 C 650 190, 780 310, 950 240"
        fill="none" stroke="rgba(122,197,123,.55)" stroke-width="6" stroke-linecap="round"/>
  <circle cx="260" cy="330" r="12" fill="rgba(255,176,83,.85)"/>
  <circle cx="530" cy="290" r="12" fill="rgba(255,176,83,.85)"/>
  <circle cx="820" cy="300" r="12" fill="rgba(255,176,83,.85)"/>
  <g transform="translate(760,420)">
    <circle cx="140" cy="140" r="120" fill="rgba(0,0,0,.25)" stroke="rgba(255,255,255,.18)" stroke-width="3"/>
    <path d="M140 40 L 160 140 L 140 240 L 120 140 Z" fill="rgba(255,176,83,.70)"/>
    <path d="M40 140 L 140 160 L 240 140 L 140 120 Z" fill="rgba(122,197,123,.55)"/>
    <circle cx="140" cy="140" r="16" fill="rgba(255,255,255,.22)"/>
  </g>
</svg>
